<svg width="105" height="45" viewBox="0 0 105 45" fill="none" xmlns="http://www.w3.org/2000/svg">
<path d="M8 34.5537L8 22.4999M8 22.4999C18 22.4999 23.5 15.5 23.5 6C12.45 6 8 11.5 8 22.4999Z" stroke="white" stroke-width="4" stroke-linecap="square"/>
<path d="M25.7513 36.5608C21.0734 36.5608 18.199 33.5173 18.199 28.6704C18.199 23.9361 21.1016 20.7518 25.5822 20.7518C29.6119 20.7518 32.7681 23.288 32.7681 28.5013V29.6849H22.3133C22.3133 31.9956 23.6941 33.4328 25.8358 33.4328C27.2448 33.4328 28.2593 32.8128 28.682 31.8829H32.6554C32.0636 34.7009 29.5274 36.5608 25.7513 36.5608ZM22.3133 27.0641H28.8229C28.8229 25.2042 27.5266 23.8798 25.6667 23.8798C23.7505 23.8798 22.3838 25.3029 22.3133 27.0641Z" fill="white"/>
<path d="M38.4052 27.4023V36.2508H34.2346V20.949H38.208V23.6262H38.3771C39.0816 21.8508 40.716 20.7518 42.9704 20.7518C46.1548 20.7518 48.2683 22.9217 48.2401 26.5005V36.2508H44.0976V27.2332C44.0976 25.3451 43.0549 24.2179 41.336 24.2179C39.5888 24.2179 38.4052 25.3733 38.4052 27.4023Z" fill="white"/>
<path d="M58.386 20.949V24.077H55.5117V31.5447C55.5117 32.7565 56.1034 33.0665 56.9488 33.0946C57.3715 33.0946 58.1042 33.0665 58.6115 33.0101V36.3072C58.1606 36.3917 57.4279 36.4481 56.3852 36.4481C53.37 36.4481 51.3128 35.0954 51.341 32.1365V24.077H49.2275V20.949H51.341V17.2856H55.5117V20.949H58.386Z" fill="white"/>
<path d="M66.5593 36.5608C61.9378 36.5608 59.0635 33.3764 59.0635 28.6422C59.0635 23.908 61.9378 20.7518 66.5593 20.7518C71.1809 20.7518 74.0834 23.908 74.0834 28.6422C74.0834 33.3764 71.1809 36.5608 66.5593 36.5608ZM66.5875 33.3201C68.7292 33.3201 69.8282 31.3193 69.8282 28.6422C69.8282 25.9369 68.7292 23.9361 66.5875 23.9361C64.4177 23.9361 63.2905 25.9369 63.2905 28.6422C63.2905 31.3193 64.4177 33.3201 66.5875 33.3201Z" fill="white"/>
<path d="M75.5499 36.2508V20.949H79.5797V23.598H79.7487C80.3123 21.7099 81.7213 20.7236 83.4403 20.7236C83.863 20.7236 84.3984 20.78 84.7648 20.8645V24.5843C84.3703 24.4716 83.5812 24.3588 82.9894 24.3588C81.1014 24.3588 79.7206 25.6833 79.7206 27.5432V36.2508H75.5499Z" fill="white"/>
<path d="M88.5702 41.9995C87.753 41.9995 86.9921 41.9714 86.4567 41.915V38.6743C86.9921 38.7025 87.6121 38.7306 88.1475 38.7306C88.9647 38.7306 89.6411 38.6461 90.1483 37.3216L90.4019 36.6735L84.9068 20.949H89.2747L92.4872 32.2211H92.6563L95.897 20.949H100.321L94.3471 37.9416C93.4735 40.3933 91.8109 41.9995 88.5702 41.9995Z" fill="white"/>
</svg>
